<svg width="1200" height="630" viewBox="0 0 1200 630" fill="none" xmlns="http://www.w3.org/2000/svg">
<rect width="1200" height="630" fill="#2E8AF7"/>
<g opacity="0.1">
<path fill-rule="evenodd" clip-rule="evenodd" d="M144.883 243.024C165.474 244.058 181.416 258.812 196.123 273.261C211.017 287.892 226.709 303.652 227.819 324.501C228.973 346.171 217.863 366.819 201.885 381.503C186.537 395.609 165.72 400.14 144.883 400.727C123.278 401.336 99.4625 400.478 84.5749 384.809C69.8926 369.356 71.794 345.806 72.4578 324.501C73.0925 304.13 74.6791 283.07 88.2193 267.838C102.46 251.817 123.475 241.948 144.883 243.024Z" fill="white"/>
<path fill-rule="evenodd" clip-rule="evenodd" d="M144.883 243.024C165.474 244.058 181.416 258.812 196.123 273.261C211.017 287.892 226.709 303.652 227.819 324.501C228.973 346.171 217.863 366.819 201.885 381.503C186.537 395.609 165.72 400.14 144.883 400.727C123.278 401.336 99.4625 400.478 84.5749 384.809C69.8926 369.356 71.794 345.806 72.4578 324.501C73.0925 304.13 74.6791 283.07 88.2193 267.838C102.46 251.817 123.475 241.948 144.883 243.024Z" fill="white" stroke="url(#paint0_linear_903_207)" stroke-width="8.86358"/>
</g>
<path d="M351.829 365.421H343.832V368.187L345.541 370.361L351.829 365.421ZM351.829 363.782L345.811 358.516L343.832 360.777V363.782H351.829ZM362.029 352.124V344.128H358.401L356.011 346.858L362.029 352.124ZM363.668 352.124L369.831 347.028L367.432 344.128H363.668V352.124ZM388.441 330.084L391.339 322.631L391.283 322.61L391.227 322.589L388.441 330.084ZM437.256 281.45H445.253V278.691L443.551 276.519L437.256 281.45ZM437.256 283.09L443.054 288.597L445.253 286.283V283.09H437.256ZM426.874 294.019V302.015H430.307L432.671 299.526L426.874 294.019ZM425.235 294.019L419.142 299.198L421.537 302.015H425.235V294.019ZM397.912 312.962L400.783 305.499L400.758 305.489L400.733 305.48L397.912 312.962ZM359.825 365.421V363.782H343.832V365.421H359.825ZM357.847 369.047L368.047 357.39L356.011 346.858L345.811 358.516L357.847 369.047ZM362.029 360.12H363.668V344.128H362.029V360.12ZM357.506 357.22C366.48 368.072 380.057 376.696 396.819 376.696V360.703C385.896 360.703 376.522 355.12 369.831 347.028L357.506 357.22ZM396.819 376.696C404.921 376.696 412.359 374.65 417.992 370.483C423.767 366.21 427.402 359.818 427.402 352.306H411.409C411.409 354.266 410.582 356.071 408.479 357.627C406.234 359.288 402.379 360.703 396.819 360.703V376.696ZM427.402 352.306C427.402 342.026 420.827 335.923 414.02 332.056C407.651 328.439 398.815 325.539 391.339 322.631L385.542 337.537C394.46 341.005 401.106 343.113 406.121 345.962C410.698 348.562 411.409 350.383 411.409 352.306H427.402ZM391.227 322.589C384.099 319.939 377.31 317.093 372.272 312.925C367.601 309.062 364.561 304.189 364.561 296.751H348.568C348.568 309.714 354.362 318.866 362.078 325.248C369.426 331.326 378.574 334.947 385.654 337.579L391.227 322.589ZM364.561 296.751C364.561 289.094 367.781 283.034 373.252 278.705C378.875 274.255 387.218 271.414 397.366 271.414V255.421C384.381 255.421 372.323 259.046 363.329 266.163C354.183 273.4 348.568 284.007 348.568 296.751H364.561ZM397.366 271.414C412.416 271.414 424.037 277.543 430.961 286.382L443.551 276.519C433.353 263.501 416.924 255.421 397.366 255.421V271.414ZM429.26 281.45V283.09H445.253V281.45H429.26ZM431.459 277.582L421.077 288.511L432.671 299.526L443.054 288.597L431.459 277.582ZM426.874 286.022H425.235V302.015H426.874V286.022ZM431.327 288.84C424.13 280.373 412.791 272.361 397.548 272.361V288.354C406.713 288.354 413.953 293.093 419.142 299.198L431.327 288.84ZM397.548 272.361C390.554 272.361 383.757 274.125 378.476 277.912C373.02 281.823 369.333 287.86 369.333 295.294H385.326C385.326 293.621 386.01 292.189 387.795 290.909C389.754 289.504 393.066 288.354 397.548 288.354V272.361ZM369.333 295.294C369.333 303.282 373.655 308.801 378.751 312.507C383.51 315.968 389.656 318.395 395.091 320.444L400.733 305.48C395.057 303.34 390.913 301.577 388.157 299.574C385.74 297.815 385.326 296.595 385.326 295.294H369.333ZM395.042 320.426C405.025 324.265 414.366 327.506 421.535 332.565C428.149 337.232 432.174 342.935 432.174 351.942H448.167C448.167 336.541 440.534 326.397 430.755 319.498C421.532 312.99 409.743 308.945 400.783 305.499L395.042 320.426ZM432.174 351.942C432.174 360.251 428.765 366.484 423.077 370.848C417.18 375.372 408.375 378.189 397.548 378.189V394.182C410.947 394.182 423.453 390.716 432.811 383.537C442.378 376.198 448.167 365.308 448.167 351.942H432.174ZM397.548 378.189C380.47 378.189 366.486 371.132 358.116 360.481L345.541 370.361C357.208 385.21 376.01 394.182 397.548 394.182V378.189ZM549.238 368.335L557.053 366.645L556.181 362.611L552.388 360.985L549.238 368.335ZM552.152 381.814L559.095 385.781L560.616 383.12L559.968 380.124L552.152 381.814ZM551.423 383.089L556.071 389.596L557.497 388.578L558.366 387.057L551.423 383.089ZM476.196 384V391.996H484.193V384H476.196ZM456.16 384H448.164V391.996H456.16V384ZM449.056 309.137L445.906 316.487L450.155 318.308L453.854 315.534L449.056 309.137ZM447.781 308.591L439.965 310.28L440.838 314.315L444.631 315.94L447.781 308.591ZM444.867 295.112L437.924 291.144L436.403 293.806L437.051 296.802L444.867 295.112ZM445.595 293.837L440.948 287.33L439.522 288.348L438.653 289.869L445.595 293.837ZM473.282 302.215L465.677 304.687L469.71 317.096L478.936 307.87L473.282 302.215ZM547.963 367.789L551.113 360.439L546.863 358.618L543.165 361.392L547.963 367.789ZM541.422 370.025L544.336 383.504L559.968 380.124L557.053 366.645L541.422 370.025ZM545.209 377.847L544.481 379.122L558.366 387.057L559.095 385.781L545.209 377.847ZM546.776 376.582C545.857 377.238 543.756 378.189 539.948 378.189V394.182C546.341 394.182 551.89 392.583 556.071 389.596L546.776 376.582ZM539.948 378.189C535.439 378.189 533.074 376.815 531.734 375.311C530.265 373.662 529.001 370.697 529.001 365.785H513.008C513.008 373.26 514.932 380.495 519.793 385.95C524.782 391.549 531.889 394.182 539.948 394.182V378.189ZM529.001 365.785V330.813H513.008V365.785H529.001ZM529.001 330.813C529.001 322.333 526.472 314.479 521.032 308.677C515.533 302.811 507.825 299.866 499.147 299.866V315.858C504.13 315.858 507.351 317.467 509.365 319.615C511.439 321.828 513.008 325.449 513.008 330.813H529.001ZM499.147 299.866C490.504 299.866 482.639 302.78 476.91 308.476C471.175 314.179 468.2 322.056 468.2 330.813H484.193C484.193 325.726 485.862 322.128 488.187 319.816C490.518 317.498 494.129 315.858 499.147 315.858V299.866ZM468.2 330.813V384H484.193V330.813H468.2ZM476.196 376.004H456.16V391.996H476.196V376.004ZM464.156 384V316.059H448.164V384H464.156ZM464.156 316.059C464.156 313.586 464.038 310.051 462.675 306.971C461.905 305.23 460.614 303.336 458.497 301.936C456.369 300.528 454.055 300.048 451.97 300.048V316.04C451.616 316.04 450.691 315.947 449.673 315.274C448.666 314.608 448.207 313.795 448.051 313.444C447.926 313.161 447.988 313.167 448.057 313.721C448.122 314.243 448.164 314.994 448.164 316.059H464.156ZM451.97 300.048C448.148 300.048 445.531 301.785 444.258 302.74L453.854 315.534C453.98 315.44 453.811 315.584 453.458 315.735C453.052 315.91 452.53 316.04 451.97 316.04V300.048ZM452.206 301.787L450.931 301.241L444.631 315.94L445.906 316.487L452.206 301.787ZM455.597 306.901L452.682 293.422L437.051 296.802L439.965 310.28L455.597 306.901ZM451.809 299.079L452.538 297.804L438.653 289.869L437.924 291.144L451.809 299.079ZM450.243 300.343C451.215 299.649 453.342 298.736 456.706 298.736V282.744C450.599 282.744 445.076 284.381 440.948 287.33L450.243 300.343ZM456.706 298.736C461.732 298.736 464.468 300.966 465.677 304.687L480.887 299.744C477.36 288.893 468.074 282.744 456.706 282.744V298.736ZM478.936 307.87C484.411 302.394 492.699 298.736 502.972 298.736V282.744C488.837 282.744 476.36 287.829 467.628 296.561L478.936 307.87ZM502.972 298.736C512.673 298.736 519.978 301.978 524.859 306.995C529.767 312.039 532.863 319.534 532.863 329.173H548.855C548.855 316.044 544.574 304.323 536.321 295.842C528.043 287.334 516.404 282.744 502.972 282.744V298.736ZM532.863 329.173V360.867H548.855V329.173H532.863ZM532.863 360.867C532.863 363.491 533.051 366.991 534.457 370.054C535.234 371.747 536.505 373.584 538.551 374.958C540.632 376.356 542.922 376.878 545.048 376.878V360.885C545.535 360.885 546.482 361.02 547.47 361.684C548.423 362.324 548.852 363.079 548.991 363.383C549.108 363.636 549.045 363.614 548.972 363.092C548.904 362.599 548.855 361.878 548.855 360.867H532.863ZM545.048 376.878C548.87 376.878 551.488 375.141 552.761 374.186L543.165 361.392C543.039 361.486 543.208 361.342 543.56 361.19C543.967 361.016 544.489 360.885 545.048 360.885V376.878ZM544.813 375.139L546.088 375.685L552.388 360.985L551.113 360.439L544.813 375.139ZM606.229 378.189C581.484 378.189 564.681 360.99 564.681 338.463H548.688C548.688 370.216 573.051 394.182 606.229 394.182V378.189ZM564.681 338.463C564.681 315.936 581.484 298.736 606.229 298.736V282.744C573.051 282.744 548.688 306.709 548.688 338.463H564.681ZM606.229 298.736C631.013 298.736 647.959 315.975 647.959 338.463H663.952C663.952 306.671 639.367 282.744 606.229 282.744V298.736ZM647.959 338.463C647.959 361.114 631.034 378.189 606.229 378.189V394.182C639.347 394.182 663.952 370.457 663.952 338.463H647.959ZM606.229 376.878C628.302 376.878 643.551 360.005 643.551 338.463H627.558C627.558 351.894 618.764 360.885 606.229 360.885V376.878ZM643.551 338.463C643.551 316.921 628.302 300.048 606.229 300.048V316.04C618.764 316.04 627.558 325.032 627.558 338.463H643.551ZM606.229 300.048C584.371 300.048 568.907 316.887 568.907 338.463H584.899C584.899 325.066 593.843 316.04 606.229 316.04V300.048ZM568.907 338.463C568.907 360.038 584.371 376.878 606.229 376.878V360.885C593.843 360.885 584.899 351.86 584.899 338.463H568.907ZM798.798 283.272L804.541 277.708L802.185 275.276H798.798V283.272ZM815.738 335.184L807.747 334.894L807.746 334.92L807.745 334.946L815.738 335.184ZM741.968 372.889L748.381 368.113L742.279 359.919L735.791 367.81L741.968 372.889ZM664.555 309.137L661.405 316.487L665.654 318.308L669.352 315.534L664.555 309.137ZM663.28 308.591L655.464 310.28L656.336 314.315L660.13 315.94L663.28 308.591ZM660.365 295.112L653.422 291.144L651.902 293.806L652.549 296.802L660.365 295.112ZM661.094 293.837L656.446 287.33L655.02 288.348L654.151 289.869L661.094 293.837ZM732.496 292.926V284.929H724.5V292.926H732.496ZM751.439 292.926H759.436V284.929H751.439V292.926ZM795.519 335.549L787.527 335.291L787.526 335.31L787.526 335.329L795.519 335.549ZM782.951 294.383H774.955V297.429L776.982 299.704L782.951 294.383ZM782.951 292.926L778.496 286.285L774.955 288.661V292.926H782.951ZM797.341 283.272V275.276H794.907L792.886 276.632L797.341 283.272ZM793.055 288.836C802.425 298.509 808.42 316.369 807.747 334.894L823.729 335.475C824.512 313.927 817.757 291.35 804.541 277.708L793.055 288.836ZM807.745 334.946C807.329 348.909 803.322 359.749 797.144 366.956C791.095 374.013 782.476 378.189 771.294 378.189V394.182C786.887 394.182 800.035 388.158 809.286 377.364C818.409 366.721 823.235 352.06 823.731 335.422L807.745 334.946ZM771.294 378.189C760.608 378.189 752.991 374.304 748.381 368.113L735.554 377.665C743.695 388.596 756.479 394.182 771.294 394.182V378.189ZM735.791 367.81C730.725 373.972 722.708 378.189 711.185 378.189V394.182C726.984 394.182 739.732 388.199 748.144 377.967L735.791 367.81ZM711.185 378.189C701.248 378.189 693.502 375.034 688.276 369.911C683.078 364.815 679.655 357.068 679.655 346.477H663.662C663.662 360.659 668.345 372.767 677.08 381.331C685.789 389.869 697.807 394.182 711.185 394.182V378.189ZM679.655 346.477V316.059H663.662V346.477H679.655ZM679.655 316.059C679.655 313.435 679.467 309.935 678.061 306.871C677.284 305.179 676.012 303.342 673.966 301.967C671.885 300.569 669.595 300.048 667.469 300.048V316.04C666.982 316.04 666.035 315.906 665.047 315.242C664.095 314.602 663.665 313.847 663.526 313.543C663.41 313.29 663.472 313.312 663.545 313.834C663.614 314.327 663.662 315.048 663.662 316.059H679.655ZM667.469 300.048C663.647 300.048 661.03 301.785 659.757 302.74L669.352 315.534C669.478 315.44 669.31 315.584 668.957 315.735C668.55 315.91 668.028 316.04 667.469 316.04V300.048ZM667.705 301.787L666.43 301.241L660.13 315.94L661.405 316.487L667.705 301.787ZM671.095 306.901L668.181 293.422L652.549 296.802L655.464 310.28L671.095 306.901ZM667.308 299.079L668.037 297.804L654.151 289.869L653.422 291.144L667.308 299.079ZM665.742 300.343C666.686 299.669 668.619 298.736 672.569 298.736V282.744C665.955 282.744 660.602 284.361 656.446 287.33L665.742 300.343ZM672.569 298.736C677.183 298.736 679.564 300.052 680.858 301.43C682.227 302.887 683.516 305.624 683.516 310.594H699.509C699.509 302.996 697.519 295.806 692.513 290.479C687.432 285.071 680.341 282.744 672.569 282.744V298.736ZM683.516 310.594V347.024H699.509V310.594H683.516ZM683.516 347.024C683.516 355.577 685.8 363.265 690.997 368.874C696.268 374.564 703.555 377.06 711.367 377.06V361.067C706.974 361.067 704.335 359.739 702.729 358.006C701.05 356.193 699.509 352.861 699.509 347.024H683.516ZM711.367 377.06C719.815 377.06 727.316 374.133 732.672 368.442C737.974 362.809 740.492 355.2 740.492 347.024H724.5C724.5 351.962 723.011 355.373 721.026 357.481C719.097 359.532 716.033 361.067 711.367 361.067V377.06ZM740.492 347.024V292.926H724.5V347.024H740.492ZM732.496 300.922H751.439V284.929H732.496V300.922ZM743.443 292.926V347.024H759.436V292.926H743.443ZM743.443 347.024C743.443 355.646 745.715 363.303 750.777 368.882C755.926 374.556 763.035 377.06 770.565 377.06V361.067C766.619 361.067 764.166 359.838 762.621 358.135C760.989 356.337 759.436 352.973 759.436 347.024H743.443ZM770.565 377.06C781.006 377.06 789.475 372.301 795.138 364.416C800.597 356.814 803.212 346.708 803.513 335.769L787.526 335.329C787.281 344.244 785.159 350.894 782.148 355.087C779.341 358.996 775.606 361.067 770.565 361.067V377.06ZM803.512 335.806C804.109 317.281 798.034 299.288 788.92 289.062L776.982 299.704C782.804 306.236 788.022 319.936 787.527 335.291L803.512 335.806ZM790.947 294.383V292.926H774.955V294.383H790.947ZM787.406 299.566L801.796 289.912L792.886 276.632L778.496 286.285L787.406 299.566ZM797.341 291.268H798.798V275.276H797.341V291.268ZM847.816 372.889L853.535 367.3L839.819 353.266V372.889H847.816ZM847.816 384V391.996H855.812V384H847.816ZM829.965 384H821.969V391.996H829.965V384ZM822.861 276.897L819.712 284.247L824.688 286.379L828.516 282.551L822.861 276.897ZM821.586 276.35L813.771 278.04L814.643 282.074L818.437 283.7L821.586 276.35ZM818.672 262.871L811.729 258.904L810.209 261.565L810.856 264.561L818.672 262.871ZM819.401 261.596L814.753 255.089L813.327 256.108L812.458 257.629L819.401 261.596ZM849.819 302.215H841.823V320.553L855.261 308.075L849.819 302.215ZM879.692 298.736C902.355 298.736 917.961 315.849 917.961 338.463H933.954C933.954 307.89 912.037 282.744 879.692 282.744V298.736ZM917.961 338.463C917.961 361.077 902.355 378.189 879.692 378.189V394.182C912.037 394.182 933.954 369.036 933.954 338.463H917.961ZM879.692 378.189C868.856 378.189 859.953 373.868 853.535 367.3L842.097 378.478C851.343 387.939 864.298 394.182 879.692 394.182V378.189ZM839.819 372.889V384H855.812V372.889H839.819ZM847.816 376.004H829.965V391.996H847.816V376.004ZM837.962 384V283.818H821.969V384H837.962ZM837.962 283.818C837.962 281.327 837.837 277.857 836.547 274.832C835.825 273.138 834.597 271.231 832.524 269.794C830.412 268.329 828.082 267.808 825.958 267.808V283.8C825.474 283.8 824.463 283.666 823.41 282.935C822.396 282.232 821.965 281.407 821.835 281.102C821.728 280.852 821.793 280.889 821.862 281.458C821.928 281.994 821.969 282.756 821.969 283.818H837.962ZM825.958 267.808C822.914 267.808 819.775 268.675 817.207 271.243L828.516 282.551C828.119 282.947 827.55 283.344 826.869 283.592C826.262 283.813 825.877 283.8 825.958 283.8V267.808ZM826.011 269.547L824.736 269.001L818.437 283.7L819.712 284.247L826.011 269.547ZM829.402 274.66L826.488 261.181L810.856 264.561L813.771 278.04L829.402 274.66ZM825.615 266.839L826.343 265.564L812.458 257.629L811.729 258.904L825.615 266.839ZM824.048 268.103C824.967 267.447 827.069 266.496 830.876 266.496V250.503C824.483 250.503 818.935 252.102 814.753 255.089L824.048 268.103ZM830.876 266.496C835.49 266.496 837.871 267.812 839.165 269.189C840.534 270.646 841.823 273.384 841.823 278.354H857.816C857.816 270.756 855.826 263.566 850.82 258.238C845.739 252.83 838.648 250.503 830.876 250.503V266.496ZM841.823 278.354V302.215H857.816V278.354H841.823ZM855.261 308.075C861.452 302.326 869.716 298.736 879.692 298.736V282.744C865.624 282.744 853.487 287.897 844.378 296.356L855.261 308.075ZM877.142 376.878C899.416 376.878 913.553 359.045 913.553 338.463H897.56C897.56 351.76 889.112 360.885 877.142 360.885V376.878ZM913.553 338.463C913.553 318.131 899.66 300.048 877.142 300.048V316.04C889.232 316.04 897.56 325.279 897.56 338.463H913.553ZM877.142 300.048C867.368 300.048 858.04 303.292 851.124 310.117C844.166 316.984 840.366 326.767 840.366 338.463H856.359C856.359 330.305 858.934 324.879 862.358 321.5C865.825 318.079 870.886 316.04 877.142 316.04V300.048ZM840.366 338.463C840.366 350.159 844.166 359.942 851.124 366.809C858.04 373.634 867.368 376.878 877.142 376.878V360.885C870.886 360.885 865.825 358.847 862.358 355.426C858.934 352.047 856.359 346.621 856.359 338.463H840.366ZM1037.23 368.335L1045.04 366.645L1044.17 362.611L1040.38 360.985L1037.23 368.335ZM1040.14 381.814L1047.09 385.782L1048.61 383.12L1047.96 380.124L1040.14 381.814ZM1039.41 383.089L1043.74 389.816L1045.39 388.757L1046.36 387.057L1039.41 383.089ZM1011.55 372.889L1019.32 371.029L1016 357.128L1005.89 367.235L1011.55 372.889ZM1011.36 303.855L1005.77 309.574L1019.36 322.85V303.855H1011.36ZM1011.36 292.926V284.929H1003.37V292.926H1011.36ZM1028.85 292.926H1036.85V284.929H1028.85V292.926ZM1035.95 367.789L1039.1 360.439L1034.13 358.306L1030.3 362.134L1035.95 367.789ZM1029.41 370.025L1032.33 383.504L1047.96 380.124L1045.04 366.645L1029.41 370.025ZM1033.2 377.847L1032.47 379.122L1046.36 387.057L1047.09 385.782L1033.2 377.847ZM1035.09 376.363C1033.7 377.257 1031.36 378.189 1028.49 378.189V394.182C1034.72 394.182 1040.03 392.2 1043.74 389.816L1035.09 376.363ZM1028.49 378.189C1025.53 378.189 1023.63 377.397 1022.39 376.416C1021.15 375.43 1019.98 373.779 1019.32 371.029L1003.77 374.749C1005.11 380.378 1007.95 385.375 1012.45 388.943C1016.95 392.516 1022.52 394.182 1028.49 394.182V378.189ZM1005.89 367.235C999.288 373.838 990.178 378.189 979.123 378.189V394.182C994.663 394.182 1007.77 387.969 1017.2 378.543L1005.89 367.235ZM979.123 378.189C957.229 378.189 941.401 361.121 941.401 338.463H925.408C925.408 368.993 947.466 394.182 979.123 394.182V378.189ZM941.401 338.463C941.401 315.644 957.21 298.736 979.123 298.736V282.744C947.485 282.744 925.408 307.731 925.408 338.463H941.401ZM979.123 298.736C990.152 298.736 999.121 303.071 1005.77 309.574L1016.95 298.136C1007.58 288.974 994.689 282.744 979.123 282.744V298.736ZM1019.36 303.855V292.926H1003.37V303.855H1019.36ZM1011.36 300.922H1028.85V284.929H1011.36V300.922ZM1020.85 292.926V360.867H1036.85V292.926H1020.85ZM1020.85 360.867C1020.85 363.683 1021.1 367.205 1022.58 370.267C1023.39 371.944 1024.69 373.716 1026.69 375.032C1028.73 376.37 1030.96 376.878 1033.04 376.878V360.885C1033.57 360.885 1034.5 361.029 1035.46 361.661C1036.4 362.272 1036.83 362.996 1036.98 363.307C1037.11 363.571 1037.05 363.564 1036.97 363.067C1036.9 362.595 1036.85 361.882 1036.85 360.867H1020.85ZM1033.04 376.878C1037.36 376.878 1040.19 374.859 1041.61 373.443L1030.3 362.134C1030.6 361.835 1031.01 361.504 1031.54 361.252C1032.09 360.987 1032.63 360.885 1033.04 360.885V376.878ZM1032.8 375.139L1034.08 375.685L1040.38 360.985L1039.1 360.439L1032.8 375.139ZM982.22 376.878C991.999 376.878 1001.27 373.481 1008.12 366.635C1014.99 359.756 1018.81 350.01 1018.81 338.463H1002.82C1002.82 346.406 1000.26 351.869 996.807 355.327C993.316 358.818 988.288 360.885 982.22 360.885V376.878ZM1018.81 338.463C1018.81 326.842 1015.01 317.089 1008.14 310.222C1001.31 303.391 992.076 300.048 982.402 300.048V316.04C988.393 316.04 993.37 318.071 996.83 321.531C1000.25 324.955 1002.82 330.412 1002.82 338.463H1018.81ZM982.402 300.048C959.585 300.048 945.626 318.059 945.626 338.463H961.619C961.619 325.351 969.883 316.04 982.402 316.04V300.048ZM945.626 338.463C945.626 359.081 959.797 376.878 982.22 376.878V360.885C970.035 360.885 961.619 351.724 961.619 338.463H945.626ZM1077.95 367.789L1081.1 360.439L1076.85 358.618L1073.15 361.392L1077.95 367.789ZM1079.22 368.335L1087.04 366.645L1086.17 362.611L1082.37 360.985L1079.22 368.335ZM1082.14 381.814L1089.08 385.782L1090.6 383.12L1089.95 380.124L1082.14 381.814ZM1081.41 383.089L1086.06 389.596L1087.48 388.578L1088.35 387.057L1081.41 383.089ZM1043.89 277.443L1040.74 284.793L1044.99 286.614L1048.68 283.84L1043.89 277.443ZM1042.61 276.897L1034.8 278.587L1035.67 282.621L1039.46 284.247L1042.61 276.897ZM1039.7 263.418L1032.75 259.45L1031.23 262.112L1031.88 265.108L1039.7 263.418ZM1040.43 262.143L1035.78 255.636L1034.35 256.654L1033.48 258.175L1040.43 262.143ZM1051.9 267.043C1056.52 267.043 1058.9 268.359 1060.19 269.736C1061.56 271.193 1062.85 273.931 1062.85 278.9H1078.84C1078.84 271.302 1076.85 264.113 1071.85 258.785C1066.76 253.377 1059.67 251.05 1051.9 251.05V267.043ZM1062.85 278.9V360.867H1078.84V278.9H1062.85ZM1062.85 360.867C1062.85 363.491 1063.04 366.991 1064.44 370.054C1065.22 371.747 1066.49 373.584 1068.54 374.958C1070.62 376.356 1072.91 376.878 1075.03 376.878V360.885C1075.52 360.885 1076.47 361.02 1077.46 361.684C1078.41 362.324 1078.84 363.079 1078.98 363.383C1079.09 363.636 1079.03 363.614 1078.96 363.092C1078.89 362.599 1078.84 361.878 1078.84 360.867H1062.85ZM1075.03 376.878C1078.86 376.878 1081.47 375.141 1082.75 374.186L1073.15 361.392C1073.03 361.486 1073.19 361.342 1073.55 361.19C1073.95 361.016 1074.48 360.885 1075.03 360.885V376.878ZM1074.8 375.139L1076.07 375.685L1082.37 360.985L1081.1 360.439L1074.8 375.139ZM1071.41 370.025L1074.32 383.504L1089.95 380.124L1087.04 366.645L1071.41 370.025ZM1075.2 377.847L1074.47 379.122L1088.35 387.057L1089.08 385.782L1075.2 377.847ZM1076.76 376.582C1075.82 377.257 1073.7 378.189 1070.12 378.189V394.182C1076.37 394.182 1081.9 392.564 1086.06 389.596L1076.76 376.582ZM1070.12 378.189C1065.71 378.189 1063.29 376.794 1061.86 375.157C1060.29 373.364 1058.99 370.218 1058.99 365.239H1042.99C1042.99 372.828 1044.97 380.155 1049.83 385.694C1054.81 391.388 1061.95 394.182 1070.12 394.182V378.189ZM1058.99 365.239V284.365H1042.99V365.239H1058.99ZM1058.99 284.365C1058.99 281.893 1058.87 278.357 1057.51 275.277C1056.74 273.536 1055.44 271.642 1053.33 270.242C1051.2 268.834 1048.89 268.354 1046.8 268.354V284.347C1046.45 284.347 1045.52 284.253 1044.5 283.58C1043.5 282.914 1043.04 282.101 1042.88 281.75C1042.76 281.468 1042.82 281.473 1042.89 282.027C1042.95 282.549 1042.99 283.3 1042.99 284.365H1058.99ZM1046.8 268.354C1042.98 268.354 1040.36 270.091 1039.09 271.046L1048.68 283.84C1048.81 283.746 1048.64 283.89 1048.29 284.042C1047.88 284.216 1047.36 284.347 1046.8 284.347V268.354ZM1047.04 270.093L1045.76 269.547L1039.46 284.247L1040.74 284.793L1047.04 270.093ZM1050.43 275.207L1047.51 261.728L1031.88 265.108L1034.8 278.587L1050.43 275.207ZM1046.64 267.385L1047.37 266.11L1033.48 258.175L1032.75 259.45L1046.64 267.385ZM1045.07 268.65C1045.99 267.994 1048.09 267.043 1051.9 267.043V251.05C1045.51 251.05 1039.96 252.649 1035.78 255.636L1045.07 268.65ZM1120.33 367.789L1123.48 360.439L1119.23 358.618L1115.54 361.392L1120.33 367.789ZM1121.61 368.335L1129.42 366.645L1128.55 362.611L1124.76 360.985L1121.61 368.335ZM1124.52 381.814L1131.47 385.782L1132.99 383.12L1132.34 380.124L1124.52 381.814ZM1123.79 383.089L1128.44 389.596L1129.87 388.578L1130.74 387.057L1123.79 383.089ZM1086.27 277.443L1083.12 284.793L1087.37 286.614L1091.07 283.84L1086.27 277.443ZM1085 276.897L1077.18 278.587L1078.05 282.621L1081.85 284.247L1085 276.897ZM1082.08 263.418L1075.14 259.45L1073.62 262.112L1074.27 265.108L1082.08 263.418ZM1082.81 262.143L1078.16 255.636L1076.74 256.654L1075.87 258.175L1082.81 262.143ZM1094.29 267.043C1098.9 267.043 1101.28 268.359 1102.58 269.736C1103.94 271.193 1105.23 273.931 1105.23 278.9H1121.23C1121.23 271.302 1119.24 264.113 1114.23 258.785C1109.15 253.377 1102.06 251.05 1094.29 251.05V267.043ZM1105.23 278.9V360.867H1121.23V278.9H1105.23ZM1105.23 360.867C1105.23 363.491 1105.42 366.991 1106.83 370.054C1107.6 371.747 1108.88 373.584 1110.92 374.958C1113 376.356 1115.29 376.878 1117.42 376.878V360.885C1117.91 360.885 1118.85 361.02 1119.84 361.684C1120.79 362.324 1121.22 363.079 1121.36 363.383C1121.48 363.636 1121.42 363.614 1121.34 363.092C1121.28 362.599 1121.23 361.878 1121.23 360.867H1105.23ZM1117.42 376.878C1121.24 376.878 1123.86 375.141 1125.13 374.186L1115.54 361.392C1115.41 361.486 1115.58 361.342 1115.93 361.19C1116.34 361.016 1116.86 360.885 1117.42 360.885V376.878ZM1117.18 375.139L1118.46 375.685L1124.76 360.985L1123.48 360.439L1117.18 375.139ZM1113.79 370.025L1116.71 383.504L1132.34 380.124L1129.42 366.645L1113.79 370.025ZM1117.58 377.847L1116.85 379.122L1130.74 387.057L1131.47 385.782L1117.58 377.847ZM1119.15 376.582C1118.2 377.257 1116.09 378.189 1112.5 378.189V394.182C1118.75 394.182 1124.29 392.564 1128.44 389.596L1119.15 376.582ZM1112.5 378.189C1108.1 378.189 1105.68 376.794 1104.24 375.157C1102.67 373.364 1101.37 370.218 1101.37 365.239H1085.38C1085.38 372.828 1087.36 380.155 1092.21 385.694C1097.2 391.388 1104.34 394.182 1112.5 394.182V378.189ZM1101.37 365.239V284.365H1085.38V365.239H1101.37ZM1101.37 284.365C1101.37 281.893 1101.25 278.357 1099.89 275.277C1099.12 273.536 1097.83 271.642 1095.71 270.242C1093.59 268.834 1091.27 268.354 1089.19 268.354V284.347C1088.83 284.347 1087.91 284.253 1086.89 283.58C1085.88 282.914 1085.42 282.101 1085.27 281.75C1085.14 281.468 1085.2 281.473 1085.27 282.027C1085.34 282.549 1085.38 283.3 1085.38 284.365H1101.37ZM1089.19 268.354C1085.36 268.354 1082.75 270.091 1081.47 271.046L1091.07 283.84C1091.2 283.746 1091.03 283.89 1090.67 284.042C1090.27 284.216 1089.75 284.347 1089.19 284.347V268.354ZM1089.42 270.093L1088.15 269.547L1081.85 284.247L1083.12 284.793L1089.42 270.093ZM1092.81 275.207L1089.9 261.728L1074.27 265.108L1077.18 278.587L1092.81 275.207ZM1089.03 267.385L1089.75 266.11L1075.87 258.175L1075.14 259.45L1089.03 267.385ZM1087.46 268.65C1088.38 267.994 1090.48 267.043 1094.29 267.043V251.05C1087.89 251.05 1082.35 252.649 1078.16 255.636L1087.46 268.65Z" fill="url(#paint1_linear_903_207)" fill-opacity="0.5"/>
<path d="M351.829 365.421V363.782L362.029 352.124H363.668C371.501 361.596 382.976 368.7 396.819 368.7C410.481 368.7 419.406 361.778 419.406 352.306C419.406 340.102 404.834 336.459 388.441 330.084C374.233 324.802 356.565 317.152 356.565 296.751C356.565 276.35 374.233 263.418 397.366 263.418C414.67 263.418 428.695 270.522 437.256 281.45V283.09L426.874 294.019H425.235C419.041 286.733 409.752 280.358 397.548 280.358C386.073 280.358 377.33 286.186 377.33 295.294C377.33 304.583 386.801 308.773 397.912 312.962C416.856 320.248 440.171 327.534 440.171 351.942C440.171 373.618 421.774 386.186 397.548 386.186C378.24 386.186 361.847 378.171 351.829 365.421ZM549.238 368.335L552.152 381.814L551.423 383.089C548.873 384.911 545.048 386.186 539.948 386.186C527.38 386.186 521.005 378.171 521.005 365.785V330.813C521.005 316.969 512.808 307.862 499.147 307.862C485.486 307.862 476.196 316.969 476.196 330.813V384H456.16V316.059C456.16 311.141 455.431 308.044 451.97 308.044C450.695 308.044 449.785 308.591 449.056 309.137L447.781 308.591L444.867 295.112L445.595 293.837C448.145 292.015 451.97 290.74 456.706 290.74C464.903 290.74 470.914 294.929 473.282 302.215C480.386 295.112 490.768 290.74 502.972 290.74C526.105 290.74 540.859 306.405 540.859 329.173V360.867C540.859 365.785 541.77 368.882 545.048 368.882C546.323 368.882 547.234 368.335 547.963 367.789L549.238 368.335ZM606.229 386.186C577.267 386.186 556.684 365.603 556.684 338.463C556.684 311.323 577.267 290.74 606.229 290.74C635.19 290.74 655.955 311.323 655.955 338.463C655.955 365.785 635.19 386.186 606.229 386.186ZM606.229 368.882C623.533 368.882 635.555 355.949 635.555 338.463C635.555 320.977 623.533 308.044 606.229 308.044C589.107 308.044 576.903 320.977 576.903 338.463C576.903 355.949 589.107 368.882 606.229 368.882ZM798.798 283.272C810.091 294.929 816.466 315.148 815.738 335.184C814.827 365.785 798.069 386.186 771.294 386.186C758.543 386.186 748.343 381.45 741.968 372.889C735.228 381.086 724.846 386.186 711.185 386.186C687.87 386.186 671.658 371.25 671.658 346.477V316.059C671.658 311.141 670.748 308.044 667.469 308.044C666.194 308.044 665.283 308.591 664.555 309.137L663.28 308.591L660.365 295.112L661.094 293.837C663.644 292.015 667.287 290.74 672.569 290.74C684.955 290.74 691.513 298.026 691.513 310.594V347.024C691.513 361.414 699.163 369.064 711.367 369.064C724.481 369.064 732.496 360.139 732.496 347.024V292.926H751.439V347.024C751.439 361.596 759.09 369.064 770.565 369.064C786.048 369.064 794.973 355.403 795.519 335.549C796.066 318.609 790.419 302.762 782.951 294.383V292.926L797.341 283.272H798.798ZM879.692 290.74C907.196 290.74 925.957 311.869 925.957 338.463C925.957 365.057 907.196 386.186 879.692 386.186C866.577 386.186 855.648 380.903 847.816 372.889V384H829.965V283.818C829.965 278.9 829.237 275.804 825.958 275.804C824.501 275.804 823.59 276.168 822.861 276.897L821.586 276.35L818.672 262.871L819.401 261.596C821.951 259.775 825.776 258.5 830.876 258.5C843.262 258.5 849.819 265.786 849.819 278.354V302.215C857.47 295.112 867.67 290.74 879.692 290.74ZM877.142 368.882C894.264 368.882 905.557 355.403 905.557 338.463C905.557 321.705 894.446 308.044 877.142 308.044C861.113 308.044 848.362 318.609 848.362 338.463C848.362 358.317 861.113 368.882 877.142 368.882ZM1037.23 368.335L1040.14 381.814L1039.41 383.089C1036.86 384.729 1033.04 386.186 1028.49 386.186C1019.56 386.186 1013.55 381.268 1011.55 372.889C1003.53 380.903 992.42 386.186 979.123 386.186C952.348 386.186 933.404 365.057 933.404 338.463C933.404 311.687 952.348 290.74 979.123 290.74C992.42 290.74 1003.35 296.022 1011.36 303.855V292.926H1028.85V360.867C1028.85 365.967 1029.94 368.882 1033.04 368.882C1034.68 368.882 1035.59 368.153 1035.95 367.789L1037.23 368.335ZM982.22 368.882C998.067 368.882 1010.82 357.953 1010.82 338.463C1010.82 318.791 998.067 308.044 982.402 308.044C964.734 308.044 953.623 321.705 953.623 338.463C953.623 355.403 964.916 368.882 982.22 368.882ZM1051.9 259.046C1064.29 259.046 1070.85 266.332 1070.85 278.9V360.867C1070.85 365.785 1071.76 368.882 1075.03 368.882C1076.31 368.882 1077.22 368.335 1077.95 367.789L1079.22 368.335L1082.14 381.814L1081.41 383.089C1078.86 384.911 1075.03 386.186 1070.12 386.186C1057.55 386.186 1050.99 377.807 1050.99 365.239V284.365C1050.99 279.447 1050.26 276.35 1046.8 276.35C1045.53 276.35 1044.62 276.897 1043.89 277.443L1042.61 276.897L1039.7 263.418L1040.43 262.143C1042.98 260.321 1046.8 259.046 1051.9 259.046ZM1094.29 259.046C1106.67 259.046 1113.23 266.332 1113.23 278.9V360.867C1113.23 365.785 1114.14 368.882 1117.42 368.882C1118.69 368.882 1119.61 368.335 1120.33 367.789L1121.61 368.335L1124.52 381.814L1123.79 383.089C1121.24 384.911 1117.42 386.186 1112.5 386.186C1099.93 386.186 1093.38 377.807 1093.38 365.239V284.365C1093.38 279.447 1092.65 276.35 1089.19 276.35C1087.91 276.35 1087 276.897 1086.27 277.443L1085 276.897L1082.08 263.418L1082.81 262.143C1085.36 260.321 1089.19 259.046 1094.29 259.046Z" fill="white"/>
<g opacity="0.2">
<path fill-rule="evenodd" clip-rule="evenodd" d="M162.935 243.024C183.526 244.058 199.469 258.812 214.176 273.261C229.07 287.892 244.762 303.652 245.872 324.501C247.025 346.171 235.915 366.819 219.938 381.503C204.59 395.609 183.773 400.14 162.935 400.727C141.33 401.336 117.515 400.478 102.627 384.809C87.9452 369.356 89.8465 345.806 90.5103 324.501C91.145 304.13 92.7316 283.07 106.272 267.837C120.513 251.817 141.527 241.948 162.935 243.024Z" fill="white"/>
<path fill-rule="evenodd" clip-rule="evenodd" d="M162.935 243.024C183.526 244.058 199.469 258.812 214.176 273.261C229.07 287.892 244.762 303.652 245.872 324.501C247.025 346.171 235.915 366.819 219.938 381.503C204.59 395.609 183.773 400.14 162.935 400.727C141.33 401.336 117.515 400.478 102.627 384.809C87.9452 369.356 89.8465 345.806 90.5103 324.501C91.145 304.13 92.7316 283.07 106.272 267.837C120.513 251.817 141.527 241.948 162.935 243.024Z" fill="white" stroke="url(#paint2_linear_903_207)" stroke-width="8.86358"/>
</g>
<g opacity="0.5">
<path fill-rule="evenodd" clip-rule="evenodd" d="M187.36 243.024C207.951 244.058 223.893 258.812 238.601 273.261C253.494 287.892 269.187 303.652 270.296 324.501C271.45 346.171 260.34 366.819 244.362 381.503C229.014 395.609 208.197 400.14 187.36 400.727C165.755 401.336 141.94 400.478 127.052 384.809C112.37 369.356 114.271 345.806 114.935 324.501C115.57 304.13 117.156 283.07 130.696 267.838C144.937 251.817 165.952 241.948 187.36 243.024Z" fill="white"/>
<path fill-rule="evenodd" clip-rule="evenodd" d="M187.36 243.024C207.951 244.058 223.893 258.812 238.601 273.261C253.494 287.892 269.187 303.652 270.296 324.501C271.45 346.171 260.34 366.819 244.362 381.503C229.014 395.609 208.197 400.14 187.36 400.727C165.755 401.336 141.94 400.478 127.052 384.809C112.37 369.356 114.271 345.806 114.935 324.501C115.57 304.13 117.156 283.07 130.696 267.838C144.937 251.817 165.952 241.948 187.36 243.024Z" fill="white" stroke="url(#paint3_linear_903_207)" stroke-width="8.86358"/>
</g>
<path fill-rule="evenodd" clip-rule="evenodd" d="M211.784 243.024C232.375 244.058 248.318 258.812 263.025 273.261C277.918 287.892 293.611 303.652 294.72 324.501C295.874 346.171 284.764 366.819 268.786 381.503C253.439 395.609 232.621 400.14 211.784 400.727C190.179 401.336 166.364 400.478 151.476 384.809C136.794 369.356 138.695 345.806 139.359 324.501C139.994 304.13 141.58 283.07 155.121 267.838C169.362 251.817 190.376 241.948 211.784 243.024Z" fill="white"/>
<path fill-rule="evenodd" clip-rule="evenodd" d="M211.784 243.024C232.375 244.058 248.318 258.812 263.025 273.261C277.918 287.892 293.611 303.652 294.72 324.501C295.874 346.171 284.764 366.819 268.786 381.503C253.439 395.609 232.621 400.14 211.784 400.727C190.179 401.336 166.364 400.478 151.476 384.809C136.794 369.356 138.695 345.806 139.359 324.501C139.994 304.13 141.58 283.07 155.121 267.838C169.362 251.817 190.376 241.948 211.784 243.024Z" fill="white" stroke="url(#paint4_linear_903_207)" stroke-width="8.86358"/>
<defs>
<linearGradient id="paint0_linear_903_207" x1="149.951" y1="242.944" x2="149.951" y2="400.861" gradientUnits="userSpaceOnUse">
<stop offset="0.354167" stop-color="#8AB9F0"/>
<stop offset="1" stop-color="#3E96FD"/>
</linearGradient>
<linearGradient id="paint1_linear_903_207" x1="737.5" y1="229" x2="737.5" y2="364.159" gradientUnits="userSpaceOnUse">
<stop offset="0.354167" stop-color="#E0E0E0"/>
<stop offset="1" stop-color="#E0E0E0" stop-opacity="0"/>
<stop offset="1" stop-color="#3391FF" stop-opacity="0"/>
</linearGradient>
<linearGradient id="paint2_linear_903_207" x1="168.003" y1="242.944" x2="168.003" y2="400.861" gradientUnits="userSpaceOnUse">
<stop offset="0.354167" stop-color="#8AB9F0"/>
<stop offset="1" stop-color="#3E96FD"/>
</linearGradient>
<linearGradient id="paint3_linear_903_207" x1="192.428" y1="242.944" x2="192.428" y2="400.861" gradientUnits="userSpaceOnUse">
<stop offset="0.354167" stop-color="#8AB9F0"/>
<stop offset="1" stop-color="#3E96FD"/>
</linearGradient>
<linearGradient id="paint4_linear_903_207" x1="216.852" y1="242.944" x2="216.852" y2="400.861" gradientUnits="userSpaceOnUse">
<stop offset="0.354167" stop-color="#8AB9F0"/>
<stop offset="1" stop-color="#3E96FD"/>
</linearGradient>
</defs>
</svg>
